Coordinates
version=1
nRows=11
nColumns=36
inDegrees=yes

Units are S.I. units (second, meters, Newtons, ...)
If the header above contains a line with 'inDegrees', this indicates whether rotational values are in degrees (yes) or radians (no).

endheader
time	pelvis_tilt	pelvis_list	pelvis_rotation	pelvis_tx	pelvis_ty	pelvis_tz	hip_flexion_r	hip_adduction_r	hip_rotation_r	knee_angle_r	knee_angle_r_beta	ankle_angle_r	subtalar_angle_r	mtp_angle_r	hip_flexion_l	hip_adduction_l	hip_rotation_l	knee_angle_l	knee_angle_l_beta	ankle_angle_l	subtalar_angle_l	mtp_angle_l	lumbar_extension	lumbar_bending	lumbar_rotation	arm_flex_r	arm_add_r	arm_rot_r	elbow_flex_r	pro_sup_r	arm_flex_l	arm_add_l	arm_rot_l	elbow_flex_l	pro_sup_l
      1.35000000	     -2.09516871	      0.97411710	     10.79849905	     -0.11797889	      1.31131453	      0.35465797	     10.26239753	     -4.59559473	      4.31035552	     16.01431601	      0.27950254	     13.74677708	     -2.45985500	     -7.49999890	      8.26409889	     -0.76504429	      0.30121134	     12.04410483	      0.21020928	      9.18020558	     -5.71223593	     -7.49999890	    -18.13095415	      0.34823085	      0.31550668	      3.85905815	    -12.31343370	     14.01896579	     29.46048563	     73.63820371	      7.33175421	    -12.84154731	     16.16331324	     26.97349756	     81.80650469
      1.36666670	     -2.50094080	      0.93040634	     10.80931935	     -0.10949049	      1.31036516	      0.35077382	     11.07817915	     -4.66417226	      4.17400223	     16.45275985	      0.28715483	     14.02602824	     -2.02872888	     -7.49999894	      9.01676825	     -0.74887273	      0.30701390	     12.58417455	      0.21963528	      9.17661897	     -5.95611633	     -7.49999894	    -18.58106349	      0.35207653	      0.18571449	      2.68174038	    -12.49699289	     12.49892917	     28.78456768	     73.43719581	      6.52397241	    -12.95317790	     15.31507271	     26.24252775	     81.44391630
      1.38333330	     -2.96942304	      0.81719537	     10.71039652	     -0.11674592	      1.30676354	      0.35412929	     12.11805536	     -4.63026982	      4.19776248	     17.12167771	      0.29882965	     14.36116143	     -1.72080578	     -7.49999896	     10.06910618	     -0.84429338	      0.11447575	     13.42611778	      0.23432996	      9.54072013	     -5.91750778	     -7.49999896	    -19.15296923	      0.33062201	      0.12692088	      1.37741368	    -13.05289732	     12.10023141	     28.16224712	     73.55360017	      5.49704146	    -13.47055846	     15.28667571	     25.84084960	     81.62558977
      1.40000000	     -3.70770924	      0.66813588	     10.71152838	     -0.11579080	      1.30222420	      0.35399184	     13.48559902	     -4.62965271	      4.13294307	     17.94337643	      0.31317100	     14.78890710	     -1.27805222	     -7.49999898	     11.38743449	     -0.90472576	     -0.03866339	     14.26461937	      0.24896457	      9.84349279	     -5.91849312	     -7.49999898	    -19.35056752	      0.27947370	      0.09660240	     -0.06842817	    -13.38768905	     10.38239906	     27.51442785	     73.50141907	      3.76106368	    -13.72736352	     15.00792689	     24.72287344	     81.43573510
      1.41666670	     -4.32655656	      0.57568774	     10.54189917	     -0.11537608	      1.30164631	      0.35352035	     14.69518523	     -4.67243110	      4.04135682	     18.70628455	      0.32648626	     15.23926784	     -0.83186427	     -7.49999912	     12.47720577	     -0.94514919	     -0.26809149	     15.03134997	      0.26234655	     10.28794108	     -5.86158547	     -7.49999912	    -19.73187890	      0.17717115	      0.26303060	     -2.27676300	    -13.81250136	      7.96925644	     27.03471347	     74.40080907	      1.90697199	    -14.33420726	     15.52472349	     23.77679687	     81.93881644
      1.43333330	     -4.93539154	      0.43854288	     10.59999617	     -0.11491721	      1.29197964	      0.35359240	     15.95955525	     -4.71057444	      3.78236712	     19.71770517	      0.34413888	     15.79281182	     -0.36977508	     -7.49999911	     13.73097432	     -0.98027595	     -0.23423139	     16.04835227	      0.28009659	     10.74746362	     -6.00424842	     -7.49999911	    -20.34872013	      0.17859582	      0.27481898	     -4.38457418	    -14.52279124	      7.35799770	     26.49205360	     74.21688601	     -0.33778366	    -14.73584257	     14.95914645	     23.02784653	     81.24408873
      1.45000000	     -5.50467002	      0.26126248	     10.52968175	     -0.11400284	      1.29421180	      0.35300239	     17.09601681	     -4.64499103	      3.78277521	     20.58794748	      0.35932747	     16.41813959	     -0.15097460	     -7.49999912	     14.92148352	     -1.10574932	     -0.26303652	     17.13132390	      0.29899801	     11.45745832	     -5.99006355	     -7.49999912	    -20.95660283	      0.14569331	      0.30238133	     -6.86444416	    -15.19943718	      7.49572438	     25.96124013	     74.43887837	     -2.93101755	    -15.25272939	     15.32544001	     22.34219975	     81.34299802
      1.46666670	     -6.36622713	      0.11043351	     10.55129754	     -0.11325961	      1.29310424	      0.35289264	     18.46585517	     -4.70959259	      3.50660773	     21.39050436	      0.37333473	     17.01692624	      0.41527949	     -7.49999930	     16.31528422	     -1.11911990	     -0.38401674	     17.99347657	      0.31404541	     11.90301341	     -5.84488799	     -7.49999930	    -21.00345747	      0.03437674	      0.65986384	    -10.07862501	    -16.25995811	     10.19474657	     25.73964847	     75.25103610	     -5.83595838	    -15.99356912	     19.55482143	     20.87971547	     80.58391253
      1.48333330	     -6.91345236	     -0.05586002	     10.57195738	     -0.11345090	      1.29640484	      0.35262089	     19.48777318	     -4.67328057	      3.32956512	     22.18595214	      0.38721791	     17.62074639	      0.84453321	     -7.49999936	     17.40247213	     -1.20119533	     -0.48657207	     18.85815529	      0.32913690	     12.35244286	     -5.63661245	     -7.49999936	    -21.56562256	     -0.05903114	      1.11437336	    -13.65470053	    -17.24666682	     14.78553559	     25.19605139	     76.31561588	     -8.59407077	    -16.75664746	     23.94565890	     19.30419273	     81.06122931
      1.50000000	     -7.58636489	     -0.22211075	     10.63107572	     -0.11245260	      1.29469021	      0.35226092	     20.72365847	     -4.67540564	      3.19440028	     23.11400713	      0.40341553	     18.22780687	      1.12580080	     -7.49999944	     18.76257479	     -1.24352467	     -0.57242874	     19.98630406	      0.34882681	     12.90252176	     -5.45873625	     -7.49999944	    -22.15089783	     -0.20145757	      1.47582457	    -17.48095773	    -18.82387711	     23.15469025	     25.94297416	     76.06742408	    -11.85178744	    -18.26920348	     31.52706004	     19.34112148	     80.81615128
      1.51666670	     -8.15620325	     -0.36141604	     10.60083609	     -0.11228066	      1.29375381	      0.35164672	     21.88338931	     -4.70238918	      3.00912249	     24.07365056	      0.42016447	     18.87423365	      1.63211030	     -7.49999953	     20.09921961	     -1.30221188	     -0.71501612	     21.24909849	      0.37086673	     13.52359341	     -5.24045148	     -7.49999953	    -22.84398484	     -0.22153403	      1.69354576	    -20.58726258	    -20.30166685	     31.47240344	     27.14729668	     74.13784375	    -14.40663090	    -19.44945266	     38.55463582	     19.79351309	     79.63331591
